<svg width="20" height="23" viewBox="0 0 20 23" fill="none" xmlns="http://www.w3.org/2000/svg">
<path d="M19.2807 17.924C18.9329 18.7275 18.5211 19.4672 18.0441 20.1472C17.3939 21.0743 16.8615 21.716 16.4512 22.0724C15.8152 22.6573 15.1337 22.9568 14.404 22.9739C13.8801 22.9739 13.2483 22.8248 12.5129 22.5224C11.7751 22.2214 11.097 22.0724 10.4771 22.0724C9.82683 22.0724 9.12947 22.2214 8.38355 22.5224C7.6365 22.8248 7.03469 22.9824 6.57456 22.998C5.87478 23.0278 5.17728 22.7197 4.48105 22.0724C4.03669 21.6848 3.48087 21.0204 2.81503 20.0791C2.10063 19.0739 1.51329 17.9084 1.05317 16.5795C0.560384 15.1442 0.313354 13.7543 0.313354 12.4087C0.313354 10.8673 0.646418 9.53789 1.31354 8.42385C1.83784 7.529 2.53534 6.82312 3.40832 6.30493C4.2813 5.78674 5.22456 5.52267 6.24036 5.50578C6.79618 5.50578 7.52506 5.6777 8.43083 6.01559C9.33405 6.35462 9.914 6.52655 10.1683 6.52655C10.3584 6.52655 11.0026 6.32552 12.0948 5.92473C13.1277 5.55305 13.9994 5.39916 14.7135 5.45978C16.6485 5.61595 18.1023 6.37876 19.0691 7.75303C17.3385 8.80163 16.4824 10.2703 16.4995 12.1544C16.5151 13.622 17.0475 14.8432 18.0938 15.8129C18.568 16.2629 19.0975 16.6107 19.6867 16.8578C19.5589 17.2283 19.4241 17.5832 19.2807 17.924V17.924ZM14.8427 0.460131C14.8427 1.61039 14.4224 2.68439 13.5848 3.67847C12.574 4.86023 11.3513 5.54311 10.0254 5.43536C10.0086 5.29736 9.99876 5.15213 9.99876 4.99951C9.99876 3.89526 10.4795 2.71349 11.3331 1.74724C11.7593 1.25801 12.3014 0.851218 12.9587 0.526714C13.6146 0.207053 14.235 0.0302728 14.8185 0C14.8356 0.153772 14.8427 0.307554 14.8427 0.460116V0.460131Z" fill="white"/>
</svg>
