<svg width="24" height="23" viewBox="0 0 24 23" fill="none" xmlns="http://www.w3.org/2000/svg">
<path fill-rule="evenodd" clip-rule="evenodd" d="M23.04 11.7614C23.04 10.9459 22.9668 10.1618 22.8309 9.40912H12V13.8575H18.1891C17.9225 15.295 17.1123 16.513 15.8943 17.3284V20.2139H19.6109C21.7855 18.2118 23.04 15.2637 23.04 11.7614Z" fill="#4285F4"/>
<path fill-rule="evenodd" clip-rule="evenodd" d="M12 22.9998C15.105 22.9998 17.7081 21.97 19.6109 20.2137L15.8943 17.3282C14.8645 18.0182 13.5472 18.4259 12 18.4259C9.00474 18.4259 6.46951 16.403 5.56519 13.6848H1.72314V16.6644C3.61542 20.4228 7.50451 22.9998 12 22.9998Z" fill="#34A853"/>
<path fill-rule="evenodd" clip-rule="evenodd" d="M5.56523 13.6851C5.33523 12.9951 5.20455 12.258 5.20455 11.5001C5.20455 10.7421 5.33523 10.0051 5.56523 9.31506V6.33551H1.72318C0.944318 7.88801 0.5 9.64437 0.5 11.5001C0.5 13.3557 0.944318 15.1121 1.72318 16.6646L5.56523 13.6851Z" fill="#FBBC05"/>
<path fill-rule="evenodd" clip-rule="evenodd" d="M12 4.57386C13.6884 4.57386 15.2043 5.15409 16.3961 6.29364L19.6945 2.99523C17.7029 1.13955 15.0997 0 12 0C7.50451 0 3.61542 2.57705 1.72314 6.33545L5.56519 9.315C6.46951 6.59682 9.00474 4.57386 12 4.57386Z" fill="#EA4335"/>
</svg>
